<?xml version="1.0" encoding="UTF-8"?>
<svg id="uuid-3b057b51-db27-4df9-beb5-26f35e3e1306" data-name="Capa 2" xmlns="http://www.w3.org/2000/svg" viewBox="0 0 140 128.33">
  <defs>
    <style>
      .uuid-443ed0b1-6ac7-4460-9755-d7651515c7d5 {
        fill: #183555;
        stroke-width: 0px;
      }
    </style>
  </defs>
  <g id="uuid-2a8e3174-7cee-414d-bdd4-6666d8af9ab0" data-name="Capa 2">
    <path class="uuid-443ed0b1-6ac7-4460-9755-d7651515c7d5" d="m69.63,33.84l8.25,8.25-24.49,24.49c-2.28,2.28-5.26,3.41-8.25,3.41s-5.97-1.14-8.25-3.41l-15.59-15.59,8.25-8.25,15.59,15.59s24.49-24.49,24.49-24.49Zm70.37,71.16h-11.91c.14.96.24,1.93.24,2.92,0,11.26-9.16,20.42-20.42,20.42s-20.42-9.16-20.42-20.42c0-.99.1-1.95.24-2.92h-35.48c.14.96.24,1.93.24,2.92,0,11.26-9.16,20.42-20.42,20.42s-20.42-9.16-20.42-20.42c0-.99.1-1.95.24-2.92H0V17.5C0,7.85,7.85,0,17.5,0h64.17c9.65,0,17.5,7.85,17.5,17.5v5.83h11.67c16.08,0,29.17,13.08,29.17,29.17v52.5Zm-40.83-70v23.33h29.17v-5.83c0-9.65-7.85-17.5-17.5-17.5h-11.67Zm-58.88,70h-16.42c-.31.84-.54,1.81-.54,2.92,0,4.82,3.93,8.75,8.75,8.75s8.75-3.93,8.75-8.75c0-1.11-.23-2.08-.54-2.92ZM87.5,17.5c0-3.21-2.61-5.83-5.83-5.83H17.5c-3.22,0-5.83,2.62-5.83,5.83v75.83h75.83V17.5Zm28.62,87.5h-16.41c-.32.84-.54,1.81-.54,2.92,0,4.82,3.93,8.75,8.75,8.75s8.75-3.93,8.75-8.75c0-1.11-.23-2.08-.54-2.92Zm12.21-11.67v-23.33h-29.17v23.33h29.17Z"/>
  </g>
</svg>