<?xml version="1.0" encoding="UTF-8"?>
<svg id="uuid-daf15531-0ced-42ed-9367-355ea696697c" data-name="Capa 2" xmlns="http://www.w3.org/2000/svg" viewBox="0 0 40 48">
  <defs>
    <style>
      .uuid-7c5fd0a1-ac5e-43c4-bdfa-c06d5b61ec39 {
        fill: #edba1d;
      }

      .uuid-7c5fd0a1-ac5e-43c4-bdfa-c06d5b61ec39, .uuid-a625bd73-dd96-4a70-8062-b6e84c8aa3bf, .uuid-b68d3aa7-1b79-4a2d-8309-0efe5980621f, .uuid-56119bc6-b69d-4511-b19a-0d298d424ae1 {
        stroke-width: 0px;
      }

      .uuid-a625bd73-dd96-4a70-8062-b6e84c8aa3bf {
        fill: #d6deea;
      }

      .uuid-b68d3aa7-1b79-4a2d-8309-0efe5980621f {
        fill: #ecf1f4;
      }

      .uuid-56119bc6-b69d-4511-b19a-0d298d424ae1 {
        fill: #0c2545;
      }
    </style>
  </defs>
  <g id="uuid-b0b37442-4502-4c9c-95ae-f2d993542e07" data-name="Capa 2">
    <g>
      <g>
        <path class="uuid-56119bc6-b69d-4511-b19a-0d298d424ae1" d="m39.54,4.56C33.12,1.55,26.57.03,20.07,0,13.44-.03,6.86,1.5.53,4.59l-.44.21-.09,21.77c0,.15.03,3.71,2.51,8.13,2.26,4.04,7.09,9.6,17.27,13.19l.28.1h.02s.25-.11.25-.11c9.99-4.12,14.74-9.64,16.96-13.54,2.45-4.29,2.47-7.59,2.47-7.72l.24-21.85-.46-.21Zm-1.34,22.05s-.04,3.1-2.32,7.04c-2.08,3.61-6.51,8.72-15.81,12.63-.02,0-.04.02-.06.03-9.47-3.41-13.98-8.55-16.1-12.29-2.31-4.08-2.35-7.41-2.35-7.43l.08-20.78C7.63,2.97,13.82,1.56,20.07,1.58c6.12.02,12.29,1.43,18.35,4.2l-.23,20.83Z"/>
        <path class="uuid-b68d3aa7-1b79-4a2d-8309-0efe5980621f" d="m20.07,1.58v44.7s-.04.02-.06.03c-9.47-3.41-13.98-8.55-16.1-12.29-2.31-4.08-2.35-7.41-2.35-7.43l.08-20.78C7.63,2.97,13.82,1.56,20.07,1.58Z"/>
        <path class="uuid-a625bd73-dd96-4a70-8062-b6e84c8aa3bf" d="m38.43,5.79l-.23,20.83s-.04,3.1-2.32,7.04c-2.08,3.61-6.51,8.72-15.81,12.63V1.58c6.12.02,12.29,1.43,18.35,4.2Z"/>
      </g>
      <path class="uuid-56119bc6-b69d-4511-b19a-0d298d424ae1" d="m20.07,12.61c-5.75,0-10.42,4.73-10.42,10.55,0,3.38,1.58,6.4,4.03,8.33.68.54,1.43.99,2.23,1.34,1.27.56,2.68.88,4.16.88s2.83-.3,4.09-.85c.8-.35,1.55-.79,2.23-1.32,2.49-1.93,4.1-4.97,4.1-8.38,0-5.82-4.68-10.55-10.43-10.55Zm-6.39,16.42c-1.4-1.55-2.25-3.61-2.25-5.87s.85-4.32,2.25-5.87v11.75Zm10.48,1.82c-1.22.67-2.61,1.04-4.09,1.04s-2.92-.39-4.16-1.08v-8.81l3.79,4.92,4.46-5.19v9.11Zm-4.36-7.47l-5.31-6.89c1.5-1.29,3.46-2.08,5.58-2.08s4.11.79,5.62,2.11l-5.89,6.86Zm6.59,5.72v-11.9c1.44,1.56,2.32,3.65,2.32,5.95s-.88,4.39-2.32,5.95Z"/>
      <path class="uuid-7c5fd0a1-ac5e-43c4-bdfa-c06d5b61ec39" d="m25.7,16.53l-5.89,6.86-5.31-6.89c1.5-1.29,3.46-2.08,5.58-2.08s4.11.79,5.62,2.11Z"/>
      <path class="uuid-56119bc6-b69d-4511-b19a-0d298d424ae1" d="m3.29,22.26h4.77c.15,0,.26.12.26.26v1.28c0,.15-.12.27-.27.27H3.29c-.15,0-.27-.12-.27-.27v-1.27c0-.15.12-.27.27-.27Z"/>
      <path class="uuid-7c5fd0a1-ac5e-43c4-bdfa-c06d5b61ec39" d="m31.96,22.26h4.77c.15,0,.26.12.26.26v1.28c0,.15-.12.27-.27.27h-4.77c-.15,0-.26-.12-.26-.26v-1.28c0-.15.12-.27.27-.27Z"/>
      <path class="uuid-7c5fd0a1-ac5e-43c4-bdfa-c06d5b61ec39" d="m31.81,9.75l-4.13,4.18c-.1.1-.1.27,0,.38l1.14,1.16c.1.1.27.1.37,0l4.13-4.18c.1-.1.1-.27,0-.38l-1.14-1.16c-.1-.1-.27-.1-.37,0Z"/>
      <path class="uuid-56119bc6-b69d-4511-b19a-0d298d424ae1" d="m8.87,10.45l3.38,3.42c.1.1.1.27,0,.38l-.89.9c-.1.1-.27.1-.37,0l-3.38-3.42c-.1-.1-.1-.27,0-.38l.89-.9c.1-.1.27-.1.37,0Z"/>
      <path class="uuid-56119bc6-b69d-4511-b19a-0d298d424ae1" d="m19.45,5.93h1.26c.15,0,.26.12.26.26v4.84c0,.15-.12.26-.26.26h-1.26c-.15,0-.26-.12-.26-.26v-4.83c0-.15.12-.27.27-.27Z"/>
      <path class="uuid-7c5fd0a1-ac5e-43c4-bdfa-c06d5b61ec39" d="m34.78,18.03l-3.35,1.4c-.13.06-.29,0-.34-.14l-.48-1.18c-.06-.14,0-.29.14-.35l3.35-1.4c.13-.06.29,0,.34.14l.48,1.18c.06.14,0,.29-.14.35Z"/>
      <path class="uuid-56119bc6-b69d-4511-b19a-0d298d424ae1" d="m5.34,17.97l3.35,1.4c.13.06.29,0,.34-.14l.48-1.18c.06-.14,0-.29-.14-.35l-3.35-1.4c-.13-.06-.29,0-.34.14l-.48,1.18c-.06.14,0,.29.14.35Z"/>
      <path class="uuid-7c5fd0a1-ac5e-43c4-bdfa-c06d5b61ec39" d="m25.49,7.5l-1.71,4.17c-.06.14,0,.29.14.35l1.5.63c.13.06.29,0,.34-.14l1.71-4.17c.06-.14,0-.29-.14-.35l-1.5-.63c-.13-.06-.29,0-.34.14Z"/>
      <path class="uuid-56119bc6-b69d-4511-b19a-0d298d424ae1" d="m14.87,8.29l1.39,3.39c.06.14,0,.29-.14.35l-1.16.49c-.13.06-.29,0-.34-.14l-1.39-3.39c-.06-.14,0-.29.14-.35l1.16-.49c.13-.06.29,0,.34.14Z"/>
    </g>
  </g>
</svg>