<?xml version="1.0" encoding="UTF-8"?>
<svg id="uuid-8e55b3bb-52dc-4d58-8283-0fa407f2193b" data-name="Capa 2" xmlns="http://www.w3.org/2000/svg" viewBox="0 0 66 72">
  <defs>
    <style>
      .uuid-c714386c-1f0f-4163-bef5-8b137e45ff91 {
        fill: #c6cad0;
      }

      .uuid-c714386c-1f0f-4163-bef5-8b137e45ff91, .uuid-c7914e79-d1c5-4598-ae4b-d183fa64a927, .uuid-67f890eb-76c8-4b93-9572-6ec6194c6ed5, .uuid-adf7689a-bde1-4c05-b57b-82b55ab38957 {
        stroke-width: 0px;
      }

      .uuid-c7914e79-d1c5-4598-ae4b-d183fa64a927 {
        fill: #2d3748;
      }

      .uuid-67f890eb-76c8-4b93-9572-6ec6194c6ed5 {
        fill: #e6e9ec;
      }

      .uuid-adf7689a-bde1-4c05-b57b-82b55ab38957 {
        fill: #f3f6fa;
      }
    </style>
  </defs>
  <g id="uuid-a8bbb2f7-11c6-4b83-8fba-edf510450243" data-name="Capa 2">
    <g>
      <polygon class="uuid-adf7689a-bde1-4c05-b57b-82b55ab38957" points="66.38 52.24 33.11 69.73 33.11 67.94 62.96 52.12 62.96 50.36 66.38 52.24"/>
      <polygon class="uuid-c714386c-1f0f-4163-bef5-8b137e45ff91" points="3.71 51.86 3.71 17.87 32.66 34.24 32.66 67.2 3.71 51.86"/>
      <polygon class="uuid-67f890eb-76c8-4b93-9572-6ec6194c6ed5" points="33.56 34.24 62.51 17.87 62.51 51.86 33.56 67.2 33.56 34.24"/>
      <polygon class="uuid-adf7689a-bde1-4c05-b57b-82b55ab38957" points="4.16 17.1 33.11 .51 62.06 17.1 33.11 33.48 4.16 17.1"/>
      <path class="uuid-c7914e79-d1c5-4598-ae4b-d183fa64a927" d="m62.96,17.1L33.11,0,3.26,17.1h0s0,0,0,0h0s0,0,0,0v35.02l29.85,15.81,29.85-15.81V17.1h0ZM33.11,1.02l28.06,16.08-28.06,15.87L5.05,17.1,33.11,1.02Zm-.89,65.44l-28.06-14.86V18.63l28.06,15.87v31.96Zm29.85-14.86l-28.06,14.86v-31.96l28.06-15.87v32.97Z"/>
      <polygon class="uuid-adf7689a-bde1-4c05-b57b-82b55ab38957" points="33.11 67.94 33.11 69.73 0 52.16 3.26 50.36 3.26 52.12 33.11 67.94"/>
      <polygon class="uuid-adf7689a-bde1-4c05-b57b-82b55ab38957" points="33.11 69.73 0 52.16 0 54.37 33.11 72 66.38 54.48 66.38 52.24 33.11 69.73"/>
      <g>
        <path class="uuid-c7914e79-d1c5-4598-ae4b-d183fa64a927" d="m22.84,57.46l-3.9-9.99-5.83-3.14v7.89l-4.58-2.46v-23.76l12.35,6.65c1.18.64,2.19,1.34,3.03,2.11.83.77,1.51,1.62,2.04,2.56.52.94.9,1.97,1.14,3.09.23,1.12.35,2.37.35,3.73,0,2.07-.29,3.52-.88,4.37-.58.85-1.52,1.18-2.8,1.01l4.58,10.91-5.5-2.96Zm-9.73-24.04v6.2l7.58,4.08c.77.41,1.31.5,1.63.26.32-.24.48-.99.48-2.26,0-.63-.04-1.16-.11-1.59-.07-.43-.2-.8-.36-1.13-.17-.32-.38-.6-.65-.83-.27-.23-.59-.44-.98-.65l-7.58-4.08Z"/>
        <path class="uuid-c7914e79-d1c5-4598-ae4b-d183fa64a927" d="m29.24,61.41l-6.76-3.64-3.9-9.99-5.02-2.7v7.89l-5.47-2.95v-24.77l13.01,7.01c1.21.65,2.26,1.38,3.12,2.17.86.79,1.58,1.69,2.13,2.67.54.97.94,2.06,1.18,3.22.24,1.15.36,2.43.36,3.82,0,2.18-.31,3.69-.95,4.62-.56.82-1.4,1.23-2.48,1.25l4.79,11.41Zm-6.04-4.26l4.25,2.29-4.39-10.47.77.11c1.11.15,1.89-.12,2.37-.82.53-.77.8-2.16.8-4.12,0-1.32-.11-2.55-.34-3.64-.22-1.07-.59-2.07-1.09-2.97-.5-.89-1.16-1.72-1.95-2.45-.8-.74-1.79-1.42-2.94-2.04l-11.69-6.3v22.76l3.68,1.98v-7.89l6.63,3.57,3.9,9.99Zm-1.32-12.62c-.57,0-1.16-.32-1.4-.45l-7.81-4.21v-7.2l8.24,4.44c.41.22.76.46,1.05.7.31.26.57.59.76.96.19.36.32.78.4,1.25.08.45.12,1.01.12,1.67,0,1.47-.2,2.27-.65,2.61-.21.16-.46.22-.71.22Zm-8.32-5.18l7.34,3.96c.66.36,1.03.38,1.14.3.01,0,.3-.25.3-1.91,0-.61-.04-1.12-.11-1.52-.07-.38-.17-.72-.32-1-.14-.27-.32-.5-.54-.69-.24-.2-.54-.41-.9-.6l-6.92-3.73v5.19Z"/>
      </g>
      <g>
        <path class="uuid-c7914e79-d1c5-4598-ae4b-d183fa64a927" d="m12.77,17.12l4.2-2.42,12.21,6.85c.98.55,1.82.82,2.52.8.69-.02,1.4-.24,2.12-.65s1.09-.82,1.12-1.22c.03-.4-.45-.87-1.44-1.42l-11.89-6.67,3.66-2.11,11.5,6.46c.92.52,1.71.77,2.35.74.64-.02,1.32-.24,2.02-.64s1.04-.77,1.09-1.15c.05-.37-.39-.82-1.32-1.34l-11.74-6.59,3.93-2.27,12.68,7.12c1.14.64,1.98,1.28,2.51,1.92.54.64.83,1.26.88,1.84.05.59-.12,1.14-.5,1.66-.39.52-.93.99-1.63,1.39-.66.38-1.28.68-1.84.91-.57.23-1.1.39-1.6.49-.5.1-.97.14-1.42.14-.45,0-.87-.03-1.26-.09.39.56.49,1.2.31,1.92-.18.72-.89,1.44-2.13,2.15-1.94,1.12-4.01,1.67-6.2,1.66-2.19-.01-4.48-.69-6.86-2.02l-13.3-7.47Z"/>
        <path class="uuid-c7914e79-d1c5-4598-ae4b-d183fa64a927" d="m33,27.05s-.05,0-.07,0c-2.26-.01-4.64-.71-7.08-2.08l-13.98-7.84,5.1-2.94,12.43,6.98c.91.51,1.67.75,2.28.74.62-.02,1.26-.22,1.91-.59.79-.46.89-.76.9-.86,0,0,0-.32-1.21-1.01l-12.56-7.05,4.56-2.62,11.73,6.58c.85.47,1.56.7,2.12.68.57-.02,1.18-.22,1.81-.58.75-.43.86-.72.87-.82,0,0-.03-.3-1.09-.9l-12.41-6.97,4.83-2.78,12.91,7.24c1.18.66,2.07,1.35,2.64,2.03.59.71.92,1.41.98,2.09.06.69-.14,1.35-.59,1.96-.42.57-1.01,1.08-1.77,1.51-.68.39-1.32.71-1.9.94-.59.24-1.16.41-1.68.51-.72.14-1.4.17-2.02.14.14.47.14.97,0,1.5-.21.85-.98,1.64-2.34,2.43-1.98,1.14-4.12,1.72-6.36,1.72Zm-19.33-9.93l12.63,7.09c2.3,1.29,4.53,1.95,6.64,1.96,2.11.03,4.11-.53,5.97-1.6,1.11-.64,1.78-1.29,1.92-1.88.15-.6.07-1.11-.25-1.56l-.59-.85,1.03.16c.73.12,1.58.13,2.52-.05.47-.09.98-.25,1.52-.46.55-.22,1.15-.52,1.79-.88.64-.37,1.15-.8,1.49-1.27.32-.44.46-.89.42-1.37-.04-.49-.3-1.03-.78-1.6-.5-.6-1.3-1.21-2.39-1.82l-12.46-6.99-3.04,1.75,11.06,6.21c.71.4,1.63,1.01,1.54,1.77-.06.52-.49,1.01-1.31,1.48-.76.44-1.51.68-2.23.7-.74.03-1.58-.23-2.59-.8l-11.28-6.33-2.77,1.6,11.21,6.29c1.19.67,1.7,1.23,1.66,1.83-.04.56-.48,1.07-1.34,1.57-.78.45-1.57.69-2.34.71-.79.02-1.69-.26-2.75-.86l-11.99-6.73-3.31,1.91Z"/>
      </g>
      <g>
        <path class="uuid-c7914e79-d1c5-4598-ae4b-d183fa64a927" d="m38.51,60.02v-23.11l12.3-6.68c2.37-1.29,4.19-1.33,5.45-.12,1.26,1.21,1.89,3.78,1.89,7.7s-.63,7.17-1.89,9.74c-1.26,2.57-3.07,4.49-5.45,5.78l-12.3,6.68Zm11.61-11.1c.72-.39,1.31-.86,1.75-1.4.44-.54.79-1.16,1.04-1.86.25-.7.41-1.5.49-2.39.08-.89.12-1.87.12-2.94s-.04-2.04-.12-2.83c-.08-.79-.25-1.4-.49-1.84-.25-.44-.59-.68-1.04-.74-.44-.05-1.03.11-1.75.51l-7.01,3.81v13.49l7.01-3.81Z"/>
        <path class="uuid-c7914e79-d1c5-4598-ae4b-d183fa64a927" d="m38.07,60.77v-24.12l12.53-6.81c2.55-1.39,4.56-1.4,5.97-.05,1.36,1.31,2.02,3.93,2.02,8.02s-.65,7.32-1.93,9.93c-1.29,2.64-3.19,4.65-5.63,5.98l-12.96,7.04Zm.89-23.6v22.1l11.64-6.32c2.28-1.24,4.05-3.12,5.26-5.59,1.22-2.49,1.84-5.71,1.84-9.55s-.59-6.27-1.75-7.39c-1.11-1.07-2.72-1.01-4.92.19l-12.07,6.56Zm3.7,16.31v-14.5l7.25-3.94c.82-.44,1.48-.63,2.02-.56.58.07,1.06.4,1.37.96.28.49.46,1.15.55,2.01.08.8.13,1.77.13,2.87s-.04,2.08-.13,2.98c-.09.92-.26,1.76-.52,2.5-.26.75-.64,1.42-1.11,2-.48.58-1.11,1.09-1.88,1.51l-7.68,4.17Zm.89-13.98v12.48l6.35-3.45c.67-.36,1.22-.8,1.62-1.29.41-.49.73-1.08.96-1.73.23-.67.39-1.44.47-2.29.08-.87.12-1.85.12-2.9s-.04-2.01-.12-2.78c-.08-.72-.22-1.29-.44-1.67-.18-.31-.4-.48-.7-.51-.24-.03-.69.03-1.48.46l-6.78,3.68Z"/>
      </g>
    </g>
  </g>
</svg>